<?xml version="1.0" encoding="UTF-8"?>
<svg width="50px" height="50px" viewBox="0 0 50 50" version="1.1" xmlns="http://www.w3.org/2000/svg" xmlns:xlink="http://www.w3.org/1999/xlink">
    <!-- Generator: Sketch 53.1 (72631) - https://sketchapp.com -->
    <title>Together icon</title>
    <desc>Created with Sketch.</desc>
    <g id="Together-icon" stroke="none" stroke-width="1" fill="none" fill-rule="evenodd">
        <g id="Together_Icon" transform="translate(9.000000, 0.000000)" fill="#FFFFFF" fill-rule="nonzero">

        </g>
        <path d="M181.5 462.5C207.9 425.4 221.9 403.8 235.5 362.7 209.5 339.6 180 279.5 180 217.8 180 97.5 289.1 0 423.6 0 549.6 0 653.3 85.6 665.9 195.3 756.7 227 821 305.9 821 398.3 821 462.2 790.2 519.7 741.2 559.6 762.6 596.5 788.7 624.3 819.5 643 759.7 640 703.5 627.6 651 606 627.8 612.5 603.1 616.1 577.4 616.1 455.2 616.1 354.1 535.6 336.5 430.8 287.9 449.1 236.3 459.7 181.5 462.5ZM330.5 377.7L346.9 371 363.9 375.8C383 381.2 403 384 423.6 384 531.1 384 615.9 308.1 615.9 217.8 615.9 127.4 531.1 51.6 423.6 51.6 316.1 51.6 231.3 127.4 231.3 217.8 231.3 259.7 251.3 307.9 269.4 324L294.8 346.6 284.2 378.9C282.2 384.8 280.3 390.2 278.4 395.4 296.2 390.6 313.6 384.7 330.5 377.7ZM47 956.7L47 836.7 0 836.7 0 808.9 128.1 808.9 128.1 836.7 81 836.7 81 956.7 47 956.7ZM197.8 958.4C161.9 958.4 135.6 934.1 135.6 899.9 135.6 865.7 161.9 841.4 197.8 841.4 233.7 841.4 259.7 865.7 259.7 899.9 259.7 934.1 233.7 958.4 197.8 958.4ZM197.8 931.3C214.2 931.3 226.5 919.5 226.5 899.9 226.5 880.2 214.2 868.4 197.8 868.4 181.4 868.4 168.8 880.2 168.8 899.9 168.8 919.5 181.4 931.3 197.8 931.3ZM367 843.1L398.1 843.1 398.1 937.7C398.1 979.9 375.4 999.3 334.7 999.3 313.2 999.3 292.5 994.1 279.2 983.7L292.3 960.1C301.9 967.9 317.7 972.9 332.1 972.9 355.2 972.9 365.3 962.4 365.3 941.9L365.3 937C356.7 946.6 344.3 951.2 329.6 951.2 298.3 951.2 273.1 929.4 273.1 896.3 273.1 863.1 298.3 841.4 329.6 841.4 345.4 841.4 358.4 846.7 367 857.6L367 843.1ZM336.1 924.2C353.3 924.2 365.7 913 365.7 896.3 365.7 879.6 353.3 868.4 336.1 868.4 318.9 868.4 306.3 879.6 306.3 896.3 306.3 913 318.9 924.2 336.1 924.2ZM539.2 900.3C539.2 902.8 538.7 906.4 538.5 909.2L453.1 909.2C456.2 923.3 468.2 932 485.4 932 497.4 932 506 928.4 513.8 921L531.2 940C520.7 952 504.9 958.4 484.6 958.4 445.5 958.4 420.1 933.7 420.1 899.9 420.1 865.9 445.9 841.4 480.4 841.4 513.5 841.4 539.2 863.8 539.2 900.3ZM480.6 866.3C465.7 866.3 455 875.4 452.7 890L508.3 890C506 875.6 495.3 866.3 480.6 866.3ZM625 928L633.8 951.2C627.1 956.1 617.3 958.4 607.2 958.4 580.5 958.4 565 944.6 565 917.6L565 871 547.6 871 547.6 845.6 565 845.6 565 817.9 597.7 817.9 597.7 845.6 625.9 845.6 625.9 871 597.7 871 597.7 917.2C597.7 926.9 603 932.2 611.8 932.2 616.6 932.2 621.5 930.7 625 928ZM721 841.4C747.6 841.4 767.8 857 767.8 891.6L767.8 956.7 735 956.7 735 896.7C735 878.3 726.6 869.9 712.2 869.9 696.4 869.9 685.1 879.6 685.1 900.5L685.1 956.7 652.3 956.7 652.3 800 685.1 800 685.1 854.9C693.9 846 706.5 841.4 721 841.4ZM908 900.3C908 902.8 907.6 906.4 907.4 909.2L822 909.2C825.1 923.3 837.1 932 854.3 932 866.3 932 874.9 928.4 882.6 921L900.1 940C889.6 952 873.8 958.4 853.5 958.4 814.4 958.4 789 933.7 789 899.9 789 865.9 814.8 841.4 849.3 841.4 882.4 841.4 908 863.8 908 900.3ZM849.5 866.3C834.6 866.3 823.9 875.4 821.5 890L877.2 890C874.9 875.6 864.2 866.3 849.5 866.3ZM961.2 858.1C969.1 847.1 982.6 841.4 1000 841.4L1000 871.8C997.3 871.6 995.2 871.4 992.7 871.4 974.6 871.4 962.6 881.3 962.6 903L962.6 956.7 929.9 956.7 929.9 843.1 961.2 843.1 961.2 858.1Z" id="Together" fill="#FFFFFF" fill-rule="nonzero"></path>
    </g>
</svg>
